<svg id="Camada_1" data-name="Camada 1" xmlns="http://www.w3.org/2000/svg" viewBox="0 0 689 570"><defs><style>.cls-1{fill:#c78b3b;}.cls-2{fill:#202020;}.cls-3{fill:#fff;}</style></defs><title>Prancheta 5</title><path class="cls-1" d="M410.09,293.64A102.68,102.68,0,0,0,270.17,189.07l-17-43.14a149.08,149.08,0,0,1,203.1,151.79Z"/><path class="cls-2" d="M429.26,216.94l-28.6,23.88a103.93,103.93,0,0,0-5.1-9.5Z"/><path class="cls-2" d="M391.66,225.34a106.06,106.06,0,0,0-6.66-8.47l30.66-20Z"/><path class="cls-2" d="M366.33,200.23a104,104,0,0,0-9.17-5.65l22-29.3Z"/><path class="cls-2" d="M316.3,182.27a104.37,104.37,0,0,0-10.77-.34l4.39-36.34Z"/><path class="cls-2" d="M333.94,185.32a101.4,101.4,0,0,0-10.56-2.19L334,148.07Z"/><path class="cls-2" d="M350.78,191.39a102.89,102.89,0,0,0-10-4l16.57-32.68Z"/><path class="cls-2" d="M398.78,179.48l-18.69,32.2a100.91,100.91,0,0,0-8-7.16Z"/><path class="cls-2" d="M410.47,282.34l36.35,4.4-36.69,6.38A107.45,107.45,0,0,0,410.47,282.34Z"/><path class="cls-2" d="M262.24,153.25l18.55,32.3a103.87,103.87,0,0,0-10.24,3.38Z"/><path class="cls-2" d="M285.74,147.34l12.66,35a103.16,103.16,0,0,0-10.67,1.56Z"/><path class="cls-2" d="M403.49,247.37l35.67-8.31-32.3,18.55A103.79,103.79,0,0,0,403.49,247.37Z"/><path class="cls-2" d="M408.52,264.55l36.56-2-35,12.66A102.65,102.65,0,0,0,408.52,264.55Z"/><path class="cls-3" d="M327.66,292.37c6.34-12.82,4.78-30.25,4.78-30.25l-56,35-.21,38c-4.34,6.3-25.26,16.77-25.26,16.77,4.54-15.44-4.27-71.11-4.27-71.11a73.93,73.93,0,1,1,146.17-10.43C390.63,344.91,430,330.68,430,330.68l1.63,19.08s-48.84,30.25-70.82.33c0,0-.39,7.66,7.18,14.39-20.34,44.42-84.46,48.91-84.46,48.91l9.71-98.65C310.16,310.77,327.66,292.37,327.66,292.37Z"/><path class="cls-2" d="M292.78,419.74l9.71-98.66s18.63-7.78,28.87-20.65c0,0-.37,13.75-23.77,26l-4.37,90.86"/><path class="cls-2" d="M282.41,275s19.95,2.89,31.4,17.32C313.81,292.36,301.71,291.1,282.41,275Z"/><path class="cls-2" d="M312.15,269.36l24.56-14.94A70.76,70.76,0,0,1,335,293.5s25,82.11,75.42,65.89a110.83,110.83,0,0,0,21.21-9.63L430,330.68s-39.36,14.23-37.14-60.35a73.76,73.76,0,0,0-5-31.74c-.52-1.32-1.09-2.62-1.67-3.89-.19-.4-.39-.79-.58-1.19-.42-.87-.85-1.74-1.3-2.59l-.72-1.31c-.45-.8-.91-1.6-1.39-2.38-.25-.41-.49-.82-.75-1.22-.54-.85-1.1-1.68-1.67-2.5-.2-.3-.4-.61-.62-.9a70.33,70.33,0,0,0-5.16-6.42l-.63-.68c-.72-.78-1.46-1.55-2.21-2.3l-.78-.74c-.75-.73-1.52-1.44-2.3-2.14l-.71-.61q-1.39-1.22-2.85-2.34a2.43,2.43,0,0,0-.25-.2,75.34,75.34,0,0,0-6.94-4.75l-.23-.13c-1.11-.66-2.23-1.3-3.36-1.9l-.45-.23c-1.12-.58-2.25-1.14-3.4-1.67l-.3-.14a75,75,0,0,0-11.95-4.23,48.59,48.59,0,0,0-10.68,7,18.78,18.78,0,1,1-17.27,33.15,77.42,77.42,0,0,0-.67,11.41c-18,.41-39.08,3.73-63.43,11.87-.16,1.46-.27,2.91-.35,4.38,24.66-8.43,45.9-11.82,63.92-12.24A114.21,114.21,0,0,0,312.15,269.36ZM388,285.05s-.81,56.36,37.64,49.8C425.6,334.85,382.71,355.08,388,285.05ZM341.64,249.9s17.67-2.14,39.94,11.88c0,0,.36-22.76-17.32-49.18,0,0,27.11,22.66,24.57,59.46C388.83,272.06,360.44,251.85,341.64,249.9Z"/><path class="cls-3" d="M413.49,358.31c9.66-5.53,15.56-9.42,15.56-9.42l.94-18.21,1.63,19.08A110.78,110.78,0,0,1,413.49,358.31Z"/><path class="cls-3" d="M344,478.91c-111,0-201.28-90.29-201.28-201.27S233,76.35,344,76.35s201.3,90.3,201.3,201.29S455,478.91,344,478.91Zm0-389.83c-104,0-188.54,84.59-188.54,188.56S240,466.19,344,466.19,532.55,381.6,532.55,277.64,448,89.08,344,89.08Z"/><path class="cls-3" d="M344,458.76c-99.87,0-181.13-81.25-181.13-181.12S244.12,96.51,344,96.51s181.13,81.26,181.13,181.13S443.87,458.76,344,458.76Zm0-355.88c-96.35,0-174.76,78.39-174.76,174.76S247.64,452.39,344,452.39,518.76,374,518.76,277.64,440.36,102.88,344,102.88Z"/><path class="cls-3" d="M687.7,220H530.24a195.86,195.86,0,0,1,0,115.29H687.7l-31.82-58Zm-14,4.77h5.89l-2.86,5.15-2.79-1.55.24-.42h-.48Zm-2.56,8.64,2.79,1.54-2.8,5.05-2.78-1.55Zm-5.6,16.66-2.79-1.55,2.8-5,2.79,1.55Zm-4.64-25.3h6.4v3.18h-6.4ZM660,253.55l2.79,1.55-2.8,5-2.78-1.55Zm-5.62,16.66-2.78-1.55,2.8-5,2.78,1.55Zm-6.24-45.45h6.41v3.18h-6.41Zm-115.24,3.18v-3.18h6.41v3.18ZM539.3,330.5h-6.41v-3.18h6.41Zm6.36-105.74h6.4v3.18h-6.4ZM552.1,330.5h-6.4v-3.18h6.4Zm6.36-105.74h6.41v3.18h-6.41Zm6.46,105.74H558.5v-3.18h6.42Zm6.35-105.74h6.4v3.18h-6.4Zm6.45,105.74h-6.4v-3.18h6.4Zm6.35-105.74h6.4v3.18h-6.4Zm6.46,105.74h-6.41v-3.18h6.41Zm6.35-105.74h6.4v3.18h-6.4Zm6.45,105.74h-6.4v-3.18h6.4Zm6.35-105.74h6.4v3.18h-6.4Zm6.45,105.74h-6.4v-3.18h6.4Zm6.36-105.74h6.4v3.18h-6.4Zm6.45,105.74h-6.4v-3.18h6.4Zm6.35-105.74h6.4v3.18h-6.4Zm6.45,105.74h-6.4v-3.18h6.4Zm7-56.8,2.78,1.55-1.12,2,1.1,2-2.79,1.52-1.94-3.56Zm5.8,56.8h-6.4v-3.18h6.4Zm12.8,0H661v-3.18h6.4Zm9.45-5.14,2.82,5.14h-5.86v-3.18h.49l-.25-.43Zm-5.62-10.24,2.81,5.12-2.78,1.53-2.81-5.12Zm-5.62-10.24,2.81,5.12-2.78,1.53-2.81-5.12ZM660,294.64l2.81,5.12L660,301.29l-2.81-5.12Zm-2.8-5.12-2.79,1.53-2.81-5.12,2.78-1.53Z"/><path class="cls-3" d="M.3,220l31.82,57.28L.3,335.28H157.75a196,196,0,0,1,0-115.29Zm33.2,4.77h6.41v3.18H33.5Zm-12.8,0h6.4v3.18H20.7Zm-9.43,5.15L8.4,224.76h5.9v3.18h-.48l.23.42ZM16.87,240l-2.81-5.05,2.79-1.54,2.8,5Zm5.6,10.07-2.8-5,2.78-1.55,2.8,5Zm5.59,10.08-2.8-5,2.79-1.55,2.79,5Zm2.8,5,2.78-1.55,2.8,5-2.78,1.55ZM14.23,330.5H8.37l2.81-5.14,2.8,1.53-.24.43h.49Zm2.55-8.73L14,320.24l2.82-5.12,2.78,1.53Zm5.64-16.89,2.79,1.53-2.8,5.12L19.61,310ZM27,330.5h-6.4v-3.18H27Zm1-29.21-2.79-1.53L28,294.64l2.79,1.53Zm5.64-16.89,2.79,1.53-2.81,5.13-2.79-1.54Zm6.18,46.1h-6.4v-3.18h6.4Zm-.58-49.69-2.79-1.52,1.11-2-1.12-2,2.77-1.55,2,3.55ZM52.65,330.5h-6.4v-3.18h6.4Zm.06-102.56h-6.4v-3.18h6.4ZM65.46,330.5h-6.4v-3.18h6.4Zm.05-102.56h-6.4v-3.18h6.4ZM78.27,330.5h-6.4v-3.18h6.4Zm0-102.56h-6.4v-3.18h6.4ZM91.07,330.5h-6.4v-3.18h6.4Zm.05-102.56h-6.4v-3.18h6.4ZM103.88,330.5H97.47v-3.18h6.41Zm0-102.56h-6.4v-3.18h6.4ZM116.68,330.5h-6.4v-3.18h6.4Zm0-102.56h-6.41v-3.18h6.41ZM129.49,330.5h-6.41v-3.18h6.41Zm0-102.56h-6.4v-3.18h6.4ZM142.3,330.5h-6.4v-3.18h6.4Zm0-102.56h-6.4v-3.18h6.4Zm12.78,99.38v3.18H148.7v-3.18Zm-6.38-99.38v-3.18h6.4v3.18Z"/><path class="cls-3" d="M100.18,400.9,94.81,412c26.16-13.64,50.49-27.71,50.49-32.9Z"/><path class="cls-3" d="M82.12,410.78l.8-1.54L31.49,434.06v9.08s21.23-9.86,45.34-21.94C78.56,417.75,80.34,414.26,82.12,410.78Z"/><path class="cls-3" d="M74.72,468.8a16.67,16.67,0,0,0-8.79-1.67,19.12,19.12,0,0,0-2.29.32A17.23,17.23,0,0,0,52,476.55l-.34.73c-.1.25-.2.49-.29.76a17,17,0,1,0,23.34-9.24Zm2,19.89a10.54,10.54,0,0,1-19-9.06l.29-.56a10.53,10.53,0,0,1,18.74,9.62Z"/><path class="cls-3" d="M58,479.07l-.29.56a2.56,2.56,0,0,1,.11-.24A2.28,2.28,0,0,1,58,479.07Z"/><polygon class="cls-3" points="70.3 453.9 63.64 467.45 63.09 468.62 57.96 479.07 57.67 479.63 57.08 480.84 51.38 478.04 51.3 477.99 52.01 476.55 61.09 458.12 61.89 456.44 64.54 451.07 70.3 453.9"/><path class="cls-3" d="M31.29,424.54a17,17,0,1,0-9.23,23.36,14.92,14.92,0,0,0,1.5-.63,17.09,17.09,0,0,0,9.08-11.63,15.79,15.79,0,0,0,.33-2.29A16.77,16.77,0,0,0,31.29,424.54ZM6.62,436.68A10.53,10.53,0,1,1,21,441.32l-.57.28A10.51,10.51,0,0,1,6.62,436.68Z"/><path class="cls-3" d="M21,441.32a2,2,0,0,1-.32.18,1,1,0,0,1-.25.1Z"/><polygon class="cls-3" points="49.03 434.75 43.66 437.4 41.98 438.19 23.55 447.27 22.1 447.98 22.06 447.9 19.26 442.2 20.46 441.61 21.04 441.32 31.48 436.2 32.64 435.64 46.2 428.98 49.03 434.75"/><path class="cls-3" d="M56.15,468.6h9.07l55-113.79C108.93,354.81,56.15,468.6,56.15,468.6Zm32.94-56.36a1.67,1.67,0,1,1,1.66-1.66A1.67,1.67,0,0,1,89.09,412.24Z"/><path class="cls-3" d="M587.82,400.9,593.19,412c-26.16-13.64-50.49-27.71-50.49-32.9Z"/><path class="cls-3" d="M605.87,410.78c-.26-.54-.53-1-.79-1.54l51.42,24.82v9.08s-21.22-9.86-45.33-21.94C609.44,417.75,607.67,414.26,605.87,410.78Z"/><path class="cls-3" d="M605.51,491.53A17,17,0,0,0,636.61,478c-.08-.27-.18-.51-.28-.76l-.35-.73a17.17,17.17,0,0,0-11.63-9.1,19.12,19.12,0,0,0-2.29-.32,16.71,16.71,0,0,0-8.79,1.67A17,17,0,0,0,605.51,491.53Zm10.59-16.94A10.56,10.56,0,0,1,630,479.07l.29.56a10.53,10.53,0,1,1-14.23-5Z"/><path class="cls-3" d="M630,479.07l.29.56a2.56,2.56,0,0,0-.11-.24A2.28,2.28,0,0,0,630,479.07Z"/><polygon class="cls-3" points="617.7 453.9 624.35 467.45 624.91 468.62 630.04 479.07 630.33 479.63 630.91 480.84 636.61 478.04 636.7 477.99 635.98 476.55 626.91 458.12 626.12 456.44 623.46 451.07 617.7 453.9"/><path class="cls-3" d="M655,433.35a15.78,15.78,0,0,0,.32,2.29,18.28,18.28,0,0,0,1.16,3.46,16.91,16.91,0,0,0,7.94,8.17,13.69,13.69,0,0,0,1.48.63,17,17,0,1,0-9.22-23.36A16.77,16.77,0,0,0,655,433.35Zm12.51,8.25-.59-.28a10.74,10.74,0,1,1,.59.28Z"/><path class="cls-3" d="M667,441.32a2.21,2.21,0,0,0,.34.18.77.77,0,0,0,.25.1Z"/><polygon class="cls-3" points="638.97 434.75 644.34 437.4 646.02 438.19 664.45 447.27 665.89 447.98 665.93 447.9 668.74 442.2 667.54 441.61 666.95 441.32 656.51 436.2 655.35 435.64 641.81 428.98 638.97 434.75"/><path class="cls-3" d="M567.82,354.81l55,113.79h9.06S579.06,354.81,567.82,354.81Zm29.42,55.77a1.67,1.67,0,1,1,1.67,1.66A1.66,1.66,0,0,1,597.24,410.58Z"/><path class="cls-3" d="M90.56,162.28a38.7,38.7,0,0,1,3.69-9c2.53-4.59,5.67-8,9.68-9.25,3.25-1.08,6.94-.52,10.53,1.46a13.38,13.38,0,0,1,7,14l.2.1c4.81-5,11.48-5.91,18.13-2.24a16.61,16.61,0,0,1,8.06,9.14c1.68,4.67.43,10.13-2.8,16a48.93,48.93,0,0,1-4.66,7.28Zm24,5.71,1.47-2.67a10,10,0,0,0-4.12-13.71c-4.68-2.59-9.49-2.42-12.9,3.78a12.1,12.1,0,0,0-1.35,3.29Zm24.62,13.57a16.37,16.37,0,0,0,1.87-2.79c3.31-6,2-11.85-4.62-15.48-7-3.84-13-.82-16,4.6l-1.4,2.54Z"/><path class="cls-3" d="M147.84,144.46l11.41,13.68-3.92,5.07-37.75-45.95,4.49-5.79,53.72,25.28-4,5.16-16.09-7.62ZM151,131.77l-13.51-6.62c-3.77-1.84-8-4.15-11.87-6.25l-.18.23c3.07,3.21,6.46,6.92,9.07,10l9.75,11.38Z"/><path class="cls-3" d="M140.12,91.76a35.81,35.81,0,0,1,6.13-7.38c4.13-3.94,8.07-6,12.29-6s7.62,2,10.76,5.35c5.12,5.38,5.92,11.28,3.56,17.24l.12.13c4-2,8.45-.59,14.61,4,6.43,4.82,10.68,7.57,12.52,8.32l-4.9,4.68c-1.78-.7-6.38-3.88-12.12-8.26-6.42-4.88-10.27-5.29-14.35-1.41l-1.89,1.8,17.41,18.29-4.75,4.53Zm23.19,14.82,2-1.93C169.89,100.31,169.76,94,165,89c-4.61-4.84-9.48-6-14.68-1.13A13.85,13.85,0,0,0,148,90.53Z"/><path class="cls-3" d="M170.9,64.08a39.09,39.09,0,0,1,7.26-6.5c4.28-3,8.58-4.69,12.74-4.09,3.4.45,6.48,2.57,8.84,5.92A13.37,13.37,0,0,1,199.9,75l.13.18c6.52-2.4,12.92-.3,17.3,5.9a16.66,16.66,0,0,1,3.25,11.75c-.53,4.94-4,9.3-9.5,13.16a51.77,51.77,0,0,1-7.36,4.51ZM190,79.7l2.5-1.76a10,10,0,0,0,2.28-14.14c-3.09-4.37-7.48-6.32-13.26-2.23a11.82,11.82,0,0,0-2.65,2.37Zm16.23,23a16.55,16.55,0,0,0,2.9-1.7C214.71,97,216,91.16,211.71,85c-4.6-6.51-11.33-6.42-16.45-2.87l-2.37,1.67Z"/><path class="cls-3" d="M238,57.7l-12.88,6.66,10,19.36,14.69-7.59,2.64,5.11L231.88,91.85l-26.59-51.5,19.6-10.12,2.64,5.11-13.74,7.1,8.75,16.94,12.89-6.65Z"/><path class="cls-3" d="M258.13,60.42l2.08,17.69-6.06,2.1L247.67,21.1l6.93-2.4,31.15,50.54-6.16,2.14L270.28,56.2Zm9.55-8.93L260,38.56c-2.15-3.6-4.45-7.86-6.53-11.73l-.27.1c.81,4.37,1.62,9.32,2.14,13.31l1.94,14.86Z"/><path class="cls-3" d="M280.47,12.07a36,36,0,0,1,9.17-2.83c5.61-1,10.06-.63,13.56,1.72s5.25,5.89,6.08,10.37c1.34,7.3-1.22,12.68-6.45,16.38l0,.17c4.43.51,7.39,4.13,10,11.38,2.74,7.55,4.79,12.18,5.93,13.82l-6.67,1.22c-1.11-1.55-3.22-6.73-5.62-13.54-2.71-7.6-5.71-10-11.25-9l-2.57.48L297.28,67l-6.46,1.19Zm11.3,25.1,2.76-.51c6.18-1.14,9.52-6.49,8.27-13.3-1.21-6.57-4.65-10.21-11.67-9a13.4,13.4,0,0,0-3.37,1Z"/><path class="cls-3" d="M326.36,4.82l4.24,57.81-6.58.48L319.78,5.3Z"/><path class="cls-3" d="M347.07,44.8,342.53,62l-6.4-.25L351.7,4.38l7.32.29,10.53,58.44L363,62.85l-3.11-17.54ZM359.22,40l-2.43-14.85c-.69-4.14-1.27-8.94-1.79-13.3h-.3c-.83,4.37-1.89,9.27-2.87,13.18l-3.62,14.54Z"/><path class="cls-3" d="M414.32,44.42,400.22,41,395.1,62.2l16.08,3.88-1.35,5.59-22.49-5.43L401,9.89l21.45,5.18-1.35,5.59L406,17l-4.48,18.54L415.63,39Z"/><path class="cls-3" d="M416.48,65.83A17.25,17.25,0,0,0,423.41,71c5.67,2.17,10.47-.25,12.56-5.74,1.92-5,.16-9.16-2.85-14C430,46.67,426,39.36,428.65,32.36c3.13-8.18,11.16-12,19.76-8.73a15.37,15.37,0,0,1,6.81,4.87l-3.51,4.73A12.2,12.2,0,0,0,446,28.92a8,8,0,0,0-10.77,4.76c-2.05,5.36-.07,8.58,3.7,14.17C443.65,55,444.63,61,442.34,67c-3.58,9.36-12.38,12.7-21,9.41-3.71-1.41-7.13-4.11-8.23-5.85Z"/><path class="cls-3" d="M469.48,34.22a37.83,37.83,0,0,1,8.95,3.64c4.67,2.56,8,5.85,9.19,9.9,1.12,3.77.4,8.17-2,12.6C483,65,480.17,67.51,476.82,69c-4.87,2.27-10.61,1.57-15.11-.89a22.09,22.09,0,0,1-2.51-1.53L447.76,87.44,442,84.28Zm-7.63,27.55a13.46,13.46,0,0,0,2.21,1.44c5.67,3.12,11.55,1.49,15.49-5.69,2.87-5.23,3.29-11.05-3.17-14.59A14,14,0,0,0,473,41.54Z"/><path class="cls-3" d="M482,87.72,468.58,99.48l-5.16-3.79,44.94-38.92,5.91,4.33L490.4,115.46l-5.26-3.86,7.19-16.28Zm12.77,2.78L501,76.83c1.74-3.82,3.94-8.13,5.94-12l-.24-.17C503.57,67.77,500,71.25,497,74L485.84,84Z"/><path class="cls-3" d="M534.44,78.63A36.14,36.14,0,0,1,542,84.57c4,4,6.24,7.91,6.3,12.13,0,4.07-1.86,7.67-5.08,10.9-5.24,5.25-11.13,6.2-17.15,4l-.12.12c2.11,3.93.81,8.43-3.66,14.71-4.65,6.55-7.29,10.87-8,12.73l-4.8-4.78c.65-1.8,3.72-6.48,7.95-12.33,4.71-6.54,5-10.4,1-14.38l-1.86-1.84-17.83,17.88-4.65-4.64ZM520.22,102.2l2,2c4.45,4.43,10.75,4.14,15.63-.76,4.72-4.73,5.77-9.63.75-14.7a13.25,13.25,0,0,0-2.71-2.22Z"/><path class="cls-3" d="M561.91,116l-6.47-8.41,4.72-3.62,17,22.06-4.71,3.62-6.48-8.42L524.7,153l-4-5.23Z"/><path class="cls-3" d="M550.11,159.22l-16.94,5.49-3.24-5.52,56.7-17.91,3.71,6.32L546.86,188l-3.3-5.63,13.06-12.1Zm10.63,7.62,11.17-10.07c3.12-2.81,6.84-5.9,10.23-8.69l-.15-.25c-4.13,1.65-8.83,3.41-12.64,4.7l-14.19,4.81Z"/><path class="cls-3" d="M179.58,496.14a15.11,15.11,0,0,1-6-4.15c-5.58-5.82-6.33-15.83,7.49-29.09,15-14.36,25.83-11.49,30.67-6.45a12.11,12.11,0,0,1,3.28,5.18l-2.82,1.23a11,11,0,0,0-3-4.74c-3.68-3.84-12.79-5.21-25.35,6.83-12.89,12.36-12.26,20.71-7.79,25.37a11.94,11.94,0,0,0,4.87,3.22Z"/><path class="cls-3" d="M211.6,500.67c-8.6,10.35-16.2,11.05-20.52,7.45-4-3.3-4.68-10.9,3.92-21.24s16.2-11.05,20.58-7.4C219.55,482.78,220.2,490.33,211.6,500.67Zm-14-11.61c-3.79,4.56-9.32,13-4.47,17s12-3.05,15.81-7.61,9.32-13,4.47-17S201.42,484.51,197.63,489.06Z"/><path class="cls-3" d="M224.1,497.39c1.53-2.27,3.26-5.23,4.47-7.16l2.58,1.74L228,497l.12.09c2.55-2.14,7.06-3.12,10.21-1l.57.38-2,3-.51-.34c-3.9-2.64-8.76-.33-11.53,3.21-.65.84-1.21,1.66-1.8,2.54l-11.93,17.63-2.7-1.83Z"/><path class="cls-3" d="M252.91,494.07l-4.69,8.43,6,3.36-1.37,2.46-6-3.36-12.09,21.71c-2.47,4.45-1.68,6.46.25,7.53a8.53,8.53,0,0,0,2,.88l-.89,2.37a7.4,7.4,0,0,1-3.12-1.12,5.79,5.79,0,0,1-3.21-4.23c-.26-1.88.42-4,2.67-8.08L244,503.37l-4-2.22,1.37-2.46,4,2.22,4.07-7.3Z"/><path class="cls-3" d="M252.76,523.89c-5.9,13.43-2.25,17.77,1.51,19.42a9.74,9.74,0,0,0,5.59.88l-.31,2.6a12.6,12.6,0,0,1-7-1.08c-7.3-3.21-7.9-11.69-3.46-21.78,4.64-10.57,11.46-15.71,17.59-13,6.61,2.9,4.84,11.84,2.24,17.75-.27.63-.55,1.26-.85,2Zm13.18,2.88c3.74-8.15,1.53-12.36-.91-13.43-3.9-1.71-8.43,2.94-11.13,8.14Z"/><path class="cls-3" d="M269.78,547.38a9.86,9.86,0,0,0,4.65,3.46c3.62,1.15,6.79-.56,8-4.4,1-3.12.77-5.73-2.15-9.61s-5.34-7.58-3.92-12.07a8.92,8.92,0,0,1,11.25-6.09,9.73,9.73,0,0,1,5.06,3.67l-2.18,2.1a7.33,7.33,0,0,0-4-3.09,5.36,5.36,0,0,0-6.83,3.74c-.9,2.83-.46,4.72,2.27,8.45,2.57,3.44,5.65,7.6,3.93,13-2.18,6.88-7.7,8.48-12.49,7a10.66,10.66,0,0,1-5.59-4Z"/><path class="cls-3" d="M322.33,562.56a11.24,11.24,0,0,1-6.09.65c-7.07-1-11.1-8.14-9.35-20.18,1.44-9.85,7.16-18.08,15.59-16.85a10.17,10.17,0,0,1,4.78,2l-1.47,2.7a8.91,8.91,0,0,0-4.27-1.85c-6.46-.94-10.17,7.12-11.28,14.72-1.4,9.63,1.3,15.86,7,16.69a9.5,9.5,0,0,0,4.68-.47Z"/><path class="cls-3" d="M351.3,546.6c-.34,13.44-5.87,18.7-11.5,18.56-5.16-.13-10.42-5.66-10.08-19.11s5.87-18.71,11.57-18.56C346.46,527.62,351.64,533.15,351.3,546.6Zm-18.16-.47c-.15,5.93.73,16,7,16.15,6.15.16,7.55-9.84,7.7-15.77s-.73-16-7-16.15C334.68,530.21,333.29,540.21,333.14,546.13Z"/><path class="cls-3" d="M359.64,536.9c-.7-4.43-1.13-5.74-1.61-8.28l2.92-.47.88,4.56.15,0a8.19,8.19,0,0,1,7-6.42c2.92-.46,6.15.49,8.28,4.69l.15,0a11.48,11.48,0,0,1,2.75-5,8.52,8.52,0,0,1,4.73-2.21c3.9-.62,8.66,1.24,10.17,10.78l3.88,24.54-3.23.51L392,536.17c-.81-5.1-2.48-10.3-7.73-9.47-2.85.45-5,3.41-5.24,7.75a19.85,19.85,0,0,0,.36,3.72l3.7,23.41-3.23.51L376,537.78c-.76-4.81-2.49-9.38-7.52-8.59-2.92.47-5.36,3.54-5.26,8.53a22.94,22.94,0,0,0,.37,3.32l3.64,23.05-3.23.51Z"/><path class="cls-3" d="M432,520l-12.47,5.26,8.78,20.8,14.28-6,1.13,2.66-17.3,7.3-19.92-47.19,16.39-6.92,1.12,2.66-13.37,5.65,7.77,18.41,12.46-5.26Z"/><path class="cls-3" d="M449,535a10,10,0,0,0,5.7-1c3.31-1.87,4.23-5.35,2.25-8.86-1.6-2.85-3.66-4.48-8.48-5s-9.18-1.29-11.49-5.39a8.92,8.92,0,0,1,3.23-12.38,9.75,9.75,0,0,1,6.14-1.18l0,3a7.33,7.33,0,0,0-5,.79,5.36,5.36,0,0,0-1.94,7.55c1.45,2.58,3.13,3.55,7.72,4.11,4.28.47,9.41,1.07,12.21,6,3.54,6.29.94,11.43-3.44,13.89a10.68,10.68,0,0,1-6.73,1.35Z"/><path class="cls-3" d="M449.82,485.65l5.45,8,5.71-3.91,1.59,2.32-5.71,3.91,14,20.51c2.88,4.2,5,4.38,6.85,3.14a8.51,8.51,0,0,0,1.69-1.44l1.73,1.86a7.41,7.41,0,0,1-2.39,2.28,5.76,5.76,0,0,1-5.22,1c-1.8-.61-3.42-2.17-6-6l-13.35-19.5-3.77,2.57L448.81,498l3.77-2.57-4.73-6.9Z"/><path class="cls-3" d="M462.54,476.59c1.08,1.37,1.08,2.72-.29,3.8-1.08.85-2.52.62-3.59-.75a2.52,2.52,0,0,1,.17-3.72C460.15,474.89,461.51,475.27,462.54,476.59Zm25.06,38.58-22.52-28.7,2.57-2,22.52,28.7Z"/><path class="cls-3" d="M463.79,466.75l2.46-2.16,34.65,39.56-2.45,2.15Z"/><path class="cls-3" d="M510.75,468.93c9.66,9.35,9.79,17,5.88,21-3.59,3.72-11.22,3.84-20.89-5.51s-9.8-17-5.83-21.08C493.5,459.65,501.08,459.58,510.75,468.93ZM498.12,482c4.26,4.13,12.26,10.28,16.65,5.75s-2.14-12.22-6.4-16.34-12.26-10.28-16.65-5.75S493.86,477.86,498.12,482Z"/></svg>