<svg id="Camada_1" data-name="Camada 1" xmlns="http://www.w3.org/2000/svg" viewBox="0 0 690 565"><defs><style>.cls-1{fill:#c78b3b;}.cls-2{fill:#202020;}.cls-3{fill:#444;}.cls-4{fill:#fff;}</style></defs><title>Prancheta 3</title><path class="cls-1" d="M411.09,295.24A102.69,102.69,0,0,0,271.17,190.67l-17-43.13a149.07,149.07,0,0,1,203.1,151.78Z"/><path class="cls-2" d="M430.26,218.54l-28.6,23.89a102.81,102.81,0,0,0-5.1-9.51Z"/><path class="cls-2" d="M392.66,227a102.59,102.59,0,0,0-6.66-8.47l30.66-20Z"/><path class="cls-2" d="M367.33,201.84a101.77,101.77,0,0,0-9.17-5.66l22-29.3Z"/><path class="cls-2" d="M317.3,183.88a101.63,101.63,0,0,0-10.77-.35l4.39-36.33Z"/><path class="cls-2" d="M334.94,186.92a104.06,104.06,0,0,0-10.56-2.19l10.65-35Z"/><path class="cls-2" d="M351.78,193a102.82,102.82,0,0,0-10-4l16.57-32.69Z"/><path class="cls-2" d="M399.78,181.08l-18.69,32.21a101,101,0,0,0-8-7.17Z"/><path class="cls-2" d="M411.47,284l36.35,4.39-36.69,6.38A107.25,107.25,0,0,0,411.47,284Z"/><path class="cls-2" d="M263.24,154.85l18.55,32.3a103.87,103.87,0,0,0-10.24,3.38Z"/><path class="cls-2" d="M286.74,148.94l12.66,35a103.16,103.16,0,0,0-10.67,1.56Z"/><path class="cls-2" d="M404.49,249l35.67-8.31-32.3,18.55A103.79,103.79,0,0,0,404.49,249Z"/><path class="cls-2" d="M409.52,266.15l36.56-2-35,12.65A103.42,103.42,0,0,0,409.52,266.15Z"/><path class="cls-2" d="M328.66,294c6.34-12.82,4.78-30.25,4.78-30.25l-56,35-.21,38C272.87,343,252,353.48,252,353.48c4.54-15.44-4.27-71.11-4.27-71.11a73.93,73.93,0,1,1,146.17-10.44C391.63,346.52,431,332.29,431,332.29l1.63,19.08s-48.84,30.24-70.82.32c0,0-.39,7.66,7.18,14.4C348.64,410.51,284.52,415,284.52,415l9.71-98.66C311.16,312.37,328.66,294,328.66,294Z"/><path class="cls-3" d="M293.78,413.34l9.71-98.65s18.63-7.78,28.87-20.66c0,0-.37,13.75-23.77,26l-4.37,90.87"/><path class="cls-3" d="M283.41,276.65a16.45,16.45,0,0,1,11.4,3.25A15.33,15.33,0,0,1,299,285h0Z"/><path class="cls-3" d="M313.15,271l24.56-15A70.79,70.79,0,0,1,336,295.11s25,82.11,75.42,65.89a111.56,111.56,0,0,0,21.21-9.63L431,332.29s-39.36,14.23-37.14-60.36a73.69,73.69,0,0,0-5-31.73c-.52-1.32-1.09-2.62-1.67-3.9-.19-.4-.39-.79-.58-1.19-.42-.87-.85-1.73-1.3-2.58l-.72-1.31c-.45-.81-.91-1.6-1.39-2.38-.25-.41-.49-.82-.75-1.23-.54-.85-1.1-1.68-1.67-2.49-.2-.31-.4-.61-.62-.91a73.17,73.17,0,0,0-5.16-6.42l-.63-.67c-.72-.78-1.46-1.55-2.21-2.3l-.78-.75c-.75-.73-1.52-1.44-2.3-2.13l-.71-.62q-1.39-1.2-2.85-2.34l-.25-.2a77.37,77.37,0,0,0-6.94-4.75,1.71,1.71,0,0,1-.23-.13q-1.66-1-3.36-1.89l-.45-.24c-1.12-.58-2.25-1.14-3.4-1.66l-.3-.14a73.13,73.13,0,0,0-11.95-4.23A48.5,48.5,0,0,0,328,202.69a18.78,18.78,0,1,1-17.27,33.15,77.48,77.48,0,0,0-.67,11.42c-18,.41-39.08,3.72-63.43,11.87-.16,1.45-.27,2.91-.35,4.37,24.66-8.42,45.9-11.82,63.92-12.23A114.5,114.5,0,0,0,313.15,271ZM389,286.66s-.81,56.35,37.64,49.79C426.6,336.45,383.71,356.69,389,286.66Zm-46.32-35.15s17.67-2.15,39.94,11.87c0,0,.36-22.76-17.32-49.17,0,0,27.11,22.66,24.57,59.45C389.83,273.66,361.44,253.46,342.64,251.51Z"/><path class="cls-4" d="M414.49,359.92c9.66-5.53,15.56-9.43,15.56-9.43l.94-18.2,1.63,19.08A110.78,110.78,0,0,1,414.49,359.92Z"/><path class="cls-2" d="M345,480.52c-111,0-201.28-90.3-201.28-201.27S234,78,345,78s201.3,90.29,201.3,201.29S456,480.52,345,480.52Zm0-389.83c-104,0-188.54,84.58-188.54,188.56S241,467.79,345,467.79s188.56-84.58,188.56-188.54S449,90.69,345,90.69Z"/><path class="cls-2" d="M345,460.36c-99.87,0-181.13-81.24-181.13-181.11S245.12,98.11,345,98.11s181.13,81.26,181.13,181.14S444.87,460.36,345,460.36Zm0-355.88c-96.35,0-174.76,78.4-174.76,174.77S248.64,454,345,454s174.77-78.39,174.77-174.75S441.36,104.48,345,104.48Z"/><path class="cls-2" d="M688.7,221.59H531.24a195.86,195.86,0,0,1,0,115.29H688.7l-31.82-58Zm-14,4.78h5.89l-2.86,5.14L674.94,230l.24-.42h-.48ZM672.14,235l2.79,1.54-2.8,5L669.35,240Zm-5.6,16.65-2.79-1.54,2.8-5,2.79,1.55Zm-4.64-25.29h6.4v3.18h-6.4ZM661,255.16l2.79,1.54-2.8,5-2.78-1.55Zm-5.62,16.65-2.78-1.54,2.8-5,2.78,1.55Zm-6.24-45.44h6.41v3.18h-6.41Zm-115.24,3.18v-3.18h6.41v3.18Zm6.45,102.56h-6.41v-3.18h6.41Zm6.36-105.74h6.4v3.18h-6.4Zm6.44,105.74h-6.4v-3.18h6.4Zm6.36-105.74h6.41v3.18h-6.41Zm6.46,105.74H559.5v-3.18h6.42Zm6.35-105.74h6.4v3.18h-6.4Zm6.45,105.74h-6.4v-3.18h6.4Zm6.35-105.74h6.4v3.18h-6.4Zm6.46,105.74h-6.41v-3.18h6.41Zm6.35-105.74h6.4v3.18h-6.4Zm6.45,105.74h-6.4v-3.18h6.4Zm6.35-105.74h6.4v3.18h-6.4Zm6.45,105.74h-6.4v-3.18h6.4Zm6.36-105.74h6.4v3.18h-6.4Zm6.45,105.74h-6.4v-3.18h6.4Zm6.35-105.74h6.4v3.18h-6.4Zm6.45,105.74h-6.4v-3.18h6.4Zm7-56.8,2.78,1.55-1.12,2,1.1,2-2.79,1.53-1.94-3.56Zm5.8,56.8h-6.4v-3.18h6.4Zm12.8,0H662v-3.18h6.4Zm9.45-5.14,2.82,5.14h-5.86v-3.18h.49l-.25-.44Zm-5.62-10.25,2.81,5.13-2.78,1.52-2.81-5.12Zm-5.62-10.23,2.81,5.11-2.78,1.53L663.79,308ZM661,296.24l2.81,5.13L661,302.89l-2.81-5.12Zm-2.8-5.12-2.79,1.53-2.81-5.12,2.78-1.52Z"/><path class="cls-2" d="M1.3,221.59l31.82,57.29-31.82,58H158.75a196,196,0,0,1,0-115.29Zm33.2,4.78h6.41v3.18H34.5Zm-12.8,0h6.4v3.18H21.7Zm-9.43,5.14L9.4,226.37h5.9v3.18h-.48l.23.42Zm5.6,10.08-2.81-5L17.85,235l2.8,5Zm5.6,10.07-2.8-5,2.78-1.55,2.8,5Zm5.59,10.08-2.8-5,2.79-1.54,2.79,5Zm2.8,5,2.78-1.55,2.8,5-2.78,1.54ZM15.23,332.11H9.37L12.18,327l2.8,1.52-.24.44h.49Zm2.55-8.74L15,321.85l2.82-5.12,2.78,1.52Zm5.64-16.88L26.21,308l-2.8,5.13-2.8-1.53ZM28,332.11h-6.4v-3.18H28Zm1-29.22-2.79-1.52L29,296.25l2.79,1.52ZM34.66,286l2.79,1.52-2.81,5.13-2.79-1.53Zm6.18,46.1h-6.4v-3.18h6.4Zm-.58-49.69-2.79-1.53,1.11-2-1.12-2,2.77-1.55,2,3.55Zm13.39,49.69h-6.4v-3.18h6.4Zm.06-102.56h-6.4v-3.18h6.4ZM66.46,332.11h-6.4v-3.18h6.4Zm.05-102.56h-6.4v-3.18h6.4ZM79.27,332.11h-6.4v-3.18h6.4Zm0-102.56h-6.4v-3.18h6.4ZM92.07,332.11h-6.4v-3.18h6.4Zm.05-102.56h-6.4v-3.18h6.4Zm12.76,102.56H98.47v-3.18h6.41Zm0-102.56h-6.4v-3.18h6.4Zm12.76,102.56h-6.4v-3.18h6.4Zm0-102.56h-6.41v-3.18h6.41Zm12.76,102.56h-6.41v-3.18h6.41Zm0-102.56h-6.4v-3.18h6.4ZM143.3,332.11h-6.4v-3.18h6.4Zm0-102.56h-6.4v-3.18h6.4Zm12.78,99.38v3.18H149.7v-3.18Zm-6.38-99.38v-3.18h6.4v3.18Z"/><path class="cls-2" d="M101.18,402.51l-5.37,11.11C122,400,146.3,385.92,146.3,380.72Z"/><path class="cls-2" d="M83.12,412.39l.8-1.55L32.49,435.67v9.07s21.23-9.85,45.34-21.94C79.56,419.36,81.34,415.87,83.12,412.39Z"/><path class="cls-2" d="M75.72,470.4a16.77,16.77,0,0,0-8.79-1.67,19.12,19.12,0,0,0-2.29.32,18.21,18.21,0,0,0-3.45,1.17A17,17,0,0,0,53,478.15l-.34.73c-.1.26-.2.5-.29.76a17,17,0,1,0,23.34-9.24Zm2,19.9a10.54,10.54,0,0,1-19-9.07l.29-.56A10.54,10.54,0,0,1,77.7,490.3Z"/><path class="cls-2" d="M59,480.67l-.29.56a2.56,2.56,0,0,1,.11-.24A3,3,0,0,1,59,480.67Z"/><polygon class="cls-2" points="71.3 455.5 64.64 469.05 64.09 470.22 58.96 480.67 58.67 481.23 58.08 482.44 52.38 479.64 52.3 479.6 53.01 478.15 62.09 459.73 62.89 458.04 65.54 452.67 71.3 455.5"/><path class="cls-2" d="M32.29,426.14a17,17,0,1,0-9.23,23.36,12.91,12.91,0,0,0,1.5-.63,17.11,17.11,0,0,0,9.08-11.62A16,16,0,0,0,34,435,16.81,16.81,0,0,0,32.29,426.14ZM7.62,438.29A10.53,10.53,0,1,1,22,442.92l-.57.29A10.52,10.52,0,0,1,7.62,438.29Z"/><path class="cls-2" d="M22,442.92a3.37,3.37,0,0,1-.32.19,1.63,1.63,0,0,1-.25.1Z"/><polygon class="cls-2" points="50.03 436.35 44.66 439.01 42.98 439.8 24.55 448.88 23.1 449.58 23.06 449.5 20.26 443.81 21.46 443.21 22.04 442.92 32.48 437.81 33.64 437.25 47.2 430.58 50.03 436.35"/><path class="cls-2" d="M57.15,470.21h9.07l55-113.8C109.93,356.41,57.15,470.21,57.15,470.21Zm32.94-56.37a1.67,1.67,0,1,1,1.66-1.66A1.66,1.66,0,0,1,90.09,413.84Z"/><path class="cls-2" d="M588.82,402.51l5.37,11.11C568,400,543.7,385.92,543.7,380.72Z"/><path class="cls-2" d="M606.87,412.39c-.26-.54-.53-1-.79-1.55l51.42,24.83v9.07s-21.22-9.85-45.33-21.94C610.44,419.36,608.67,415.87,606.87,412.39Z"/><path class="cls-2" d="M606.51,493.13a17,17,0,0,0,31.1-13.49c-.08-.26-.18-.5-.28-.76l-.35-.73a16.85,16.85,0,0,0-8.17-7.93,18.07,18.07,0,0,0-3.46-1.17,19.12,19.12,0,0,0-2.29-.32,16.81,16.81,0,0,0-8.79,1.67A17,17,0,0,0,606.51,493.13ZM617.1,476.2A10.55,10.55,0,0,1,631,480.67l.29.56a10.54,10.54,0,1,1-14.23-5Z"/><path class="cls-2" d="M631,480.67l.29.56a2.56,2.56,0,0,0-.11-.24A3,3,0,0,0,631,480.67Z"/><polygon class="cls-2" points="618.7 455.5 625.35 469.05 625.91 470.22 631.04 480.67 631.33 481.23 631.91 482.44 637.61 479.64 637.7 479.6 636.98 478.15 627.91 459.73 627.12 458.04 624.46 452.67 618.7 455.5"/><path class="cls-2" d="M656,435a16,16,0,0,0,.32,2.29,18.18,18.18,0,0,0,1.16,3.45,16.83,16.83,0,0,0,7.94,8.17,12,12,0,0,0,1.48.63,17,17,0,1,0-9.22-23.36A16.81,16.81,0,0,0,656,435Zm12.51,8.25-.59-.29a10.59,10.59,0,1,1,.59.29Z"/><path class="cls-2" d="M668,442.92a3.72,3.72,0,0,0,.34.19,1.09,1.09,0,0,0,.25.1Z"/><polygon class="cls-2" points="639.97 436.35 645.34 439.01 647.02 439.8 665.45 448.88 666.89 449.58 666.93 449.5 669.74 443.81 668.54 443.21 667.95 442.92 657.51 437.81 656.35 437.25 642.81 430.58 639.97 436.35"/><path class="cls-2" d="M568.82,356.41l55,113.8h9.06S580.06,356.41,568.82,356.41Zm29.42,55.77a1.67,1.67,0,1,1,1.67,1.66A1.66,1.66,0,0,1,598.24,412.18Z"/><path class="cls-2" d="M91.56,163.88a38.9,38.9,0,0,1,3.69-9c2.53-4.59,5.67-8,9.68-9.26,3.25-1.07,6.94-.51,10.53,1.47a13.38,13.38,0,0,1,7,14l.2.11c4.81-5,11.48-5.91,18.13-2.25a16.63,16.63,0,0,1,8.06,9.15c1.68,4.67.43,10.13-2.8,16a50.28,50.28,0,0,1-4.65,7.27Zm24,5.72,1.47-2.67a10,10,0,0,0-4.12-13.72c-4.68-2.58-9.49-2.41-12.9,3.78a12.22,12.22,0,0,0-1.35,3.29Zm24.62,13.57a16.52,16.52,0,0,0,1.87-2.8c3.31-6,2-11.85-4.62-15.47-7-3.85-13-.82-16,4.6L120,172Z"/><path class="cls-2" d="M148.84,146.07l11.41,13.68-3.92,5.06-37.75-45.94,4.49-5.8,53.72,25.28-4,5.16-16.09-7.62Zm3.11-12.7-13.51-6.62c-3.77-1.84-8-4.15-11.87-6.25l-.18.23c3.07,3.22,6.46,6.92,9.07,10l9.75,11.38Z"/><path class="cls-2" d="M141.12,93.37A35.86,35.86,0,0,1,147.26,86c4.12-3.93,8.06-6,12.29-6,4.06.09,7.61,2.06,10.76,5.36,5.11,5.37,5.91,11.28,3.55,17.24l.12.12c4-2,8.45-.58,14.61,4,6.43,4.82,10.68,7.58,12.53,8.33l-4.91,4.67c-1.78-.69-6.38-3.88-12.12-8.26-6.42-4.88-10.27-5.29-14.35-1.41l-1.89,1.81,17.42,18.28-4.76,4.53Zm23.19,14.82,2-1.94c4.55-4.33,4.42-10.64-.35-15.65-4.61-4.84-9.48-6-14.68-1.12A13.53,13.53,0,0,0,149,92.13Z"/><path class="cls-2" d="M171.9,65.69a38.73,38.73,0,0,1,7.26-6.5c4.28-3,8.58-4.69,12.75-4.1,3.39.46,6.47,2.57,8.83,5.92a13.37,13.37,0,0,1,.16,15.63l.13.19c6.52-2.41,12.92-.31,17.3,5.89a16.66,16.66,0,0,1,3.25,11.75c-.53,4.94-4,9.31-9.49,13.16a50.38,50.38,0,0,1-7.37,4.51ZM191,81.31l2.49-1.77a10,10,0,0,0,2.28-14.14c-3.09-4.36-7.48-6.31-13.26-2.23a12.07,12.07,0,0,0-2.65,2.37Zm16.22,23a15.78,15.78,0,0,0,2.9-1.69c5.61-4,6.94-9.81,2.61-15.94-4.6-6.5-11.33-6.41-16.45-2.87l-2.37,1.67Z"/><path class="cls-2" d="M239,59.3,226.11,66l10,19.36,14.69-7.59,2.64,5.11L232.88,93.46,206.29,42l19.6-10.13,2.64,5.11L214.79,44l8.75,17,12.89-6.66Z"/><path class="cls-2" d="M259.13,62l2.08,17.69-6,2.1-6.49-59.1,6.93-2.41,31.16,50.54L280.59,73l-9.31-15.17Zm9.55-8.93L261,40.17c-2.15-3.61-4.45-7.86-6.53-11.73l-.27.1c.81,4.36,1.62,9.32,2.14,13.31l1.94,14.86Z"/><path class="cls-2" d="M281.47,13.67a36,36,0,0,1,9.17-2.82c5.61-1,10.06-.64,13.56,1.72s5.25,5.89,6.08,10.37c1.34,7.3-1.22,12.68-6.45,16.38l0,.17c4.43.5,7.39,4.13,10,11.37,2.74,7.56,4.79,12.18,5.93,13.82l-6.67,1.23c-1.11-1.55-3.22-6.74-5.62-13.54-2.71-7.6-5.71-10-11.25-9l-2.57.47,4.58,24.84-6.46,1.19Zm11.3,25.1,2.76-.51c6.18-1.14,9.52-6.49,8.27-13.3-1.21-6.56-4.65-10.21-11.67-9a13.43,13.43,0,0,0-3.37,1Z"/><path class="cls-2" d="M327.36,6.42l4.24,57.81-6.58.48L320.78,6.9Z"/><path class="cls-2" d="M348.07,46.41l-4.54,17.22-6.4-.26L352.7,6l7.32.3,10.53,58.43L364,64.45l-3.11-17.53Zm12.15-4.83-2.43-14.84c-.69-4.14-1.27-8.94-1.79-13.3h-.3c-.83,4.36-1.89,9.27-2.87,13.17l-3.62,14.54Z"/><path class="cls-2" d="M415.32,46l-14.1-3.4L396.1,63.8l16.08,3.88-1.35,5.59-22.49-5.43L402,11.5l21.45,5.18-1.35,5.59-15-3.63-4.48,18.54,14.1,3.4Z"/><path class="cls-2" d="M417.48,67.44a17.34,17.34,0,0,0,6.93,5.17c5.67,2.17,10.47-.26,12.56-5.74,1.92-5,.16-9.17-2.85-14C431,48.28,427,41,429.65,34c3.13-8.19,11.16-12,19.76-8.74a15.45,15.45,0,0,1,6.81,4.88l-3.51,4.72A12.26,12.26,0,0,0,447,30.52a8,8,0,0,0-10.78,4.76c-2,5.36-.06,8.58,3.71,14.17,4.75,7.12,5.73,13.2,3.44,19.19-3.58,9.36-12.38,12.7-21,9.41-3.71-1.42-7.13-4.12-8.23-5.86Z"/><path class="cls-2" d="M470.48,35.82a38.26,38.26,0,0,1,8.95,3.64c4.67,2.57,8,5.86,9.19,9.9,1.12,3.77.4,8.17-2,12.61-2.56,4.66-5.42,7.15-8.77,8.66a17,17,0,0,1-15.11-.9,22.12,22.12,0,0,1-2.51-1.52L448.76,89,443,85.88Zm-7.63,27.55a13.43,13.43,0,0,0,2.21,1.45c5.67,3.11,11.55,1.48,15.49-5.69,2.87-5.23,3.29-11.05-3.17-14.6A14,14,0,0,0,474,43.14Z"/><path class="cls-2" d="M483,89.33l-13.38,11.75-5.16-3.78,44.94-38.93,5.91,4.33L491.4,117.06l-5.26-3.85,7.19-16.29Zm12.77,2.78L502,78.43c1.74-3.82,3.94-8.13,5.94-12l-.24-.18c-3.13,3.16-6.75,6.64-9.73,9.33l-11.13,10Z"/><path class="cls-2" d="M535.44,80.24A35.82,35.82,0,0,1,543,86.18c4,4,6.24,7.91,6.3,12.13,0,4.07-1.86,7.66-5.08,10.89-5.24,5.26-11.13,6.2-17.15,4l-.12.12c2.11,3.93.81,8.42-3.66,14.7-4.65,6.56-7.29,10.88-8,12.74L510.48,136c.64-1.79,3.71-6.47,7.94-12.32,4.71-6.54,5-10.41,1-14.38l-1.86-1.85-17.83,17.88-4.65-4.63ZM521.22,103.8l2,2c4.45,4.44,10.75,4.14,15.64-.76,4.71-4.73,5.76-9.62.74-14.7a14,14,0,0,0-2.71-2.22Z"/><path class="cls-2" d="M562.91,117.62l-6.47-8.41,4.72-3.63,17,22.06-4.71,3.63-6.48-8.43L525.7,154.55l-4-5.22Z"/><path class="cls-2" d="M551.11,160.83l-16.94,5.49-3.24-5.53,56.7-17.91,3.71,6.32-43.48,40.44-3.3-5.63,13.07-12.09Zm10.63,7.62,11.17-10.07c3.12-2.82,6.84-5.9,10.23-8.7l-.15-.25c-4.13,1.65-8.83,3.42-12.64,4.71l-14.19,4.8Z"/><path class="cls-2" d="M180.57,497.73a15.11,15.11,0,0,1-6-4.15c-5.58-5.82-6.33-15.83,7.49-29.09,15-14.36,25.83-11.49,30.67-6.45a12.11,12.11,0,0,1,3.28,5.18l-2.82,1.23a11,11,0,0,0-3-4.74c-3.68-3.84-12.79-5.21-25.35,6.83-12.89,12.36-12.26,20.71-7.79,25.37a11.83,11.83,0,0,0,4.87,3.22Z"/><path class="cls-2" d="M212.6,502.28c-8.6,10.34-16.2,11.05-20.52,7.45-4-3.3-4.68-10.9,3.92-21.24s16.2-11.05,20.58-7.41C220.55,484.39,221.2,491.94,212.6,502.28Zm-14-11.61c-3.79,4.56-9.32,13-4.47,17s12-3.05,15.81-7.61,9.32-13,4.47-17S202.42,486.11,198.63,490.67Z"/><path class="cls-2" d="M225.1,499c1.53-2.26,3.26-5.22,4.47-7.16l2.58,1.75-3.19,5,.12.08c2.55-2.13,7.07-3.12,10.21-1l.57.39-2,3-.5-.34c-3.91-2.64-8.77-.34-11.54,3.21-.65.84-1.21,1.65-1.8,2.54L212.1,524.06l-2.71-1.84Z"/><path class="cls-2" d="M253.91,495.67l-4.69,8.44,6,3.36-1.37,2.45-6-3.36-12.08,21.72c-2.48,4.45-1.69,6.46.24,7.53a8.85,8.85,0,0,0,2,.87l-.89,2.38a7.63,7.63,0,0,1-3.12-1.13,5.77,5.77,0,0,1-3.21-4.22c-.26-1.88.42-4,2.67-8.08L245,505l-4-2.21,1.37-2.46,4,2.22,4.07-7.31Z"/><path class="cls-2" d="M253.76,525.49c-5.9,13.43-2.25,17.78,1.51,19.43a9.81,9.81,0,0,0,5.59.87l-.31,2.61a12.69,12.69,0,0,1-7-1.08c-7.3-3.21-7.9-11.69-3.46-21.78,4.64-10.58,11.47-15.72,17.59-13,6.61,2.91,4.84,11.84,2.24,17.76-.27.62-.55,1.25-.85,2Zm13.18,2.89c3.74-8.16,1.53-12.37-.91-13.44-3.9-1.71-8.43,2.94-11.13,8.15Z"/><path class="cls-2" d="M270.78,549a10,10,0,0,0,4.65,3.46c3.62,1.14,6.79-.57,8-4.41,1-3.11.77-5.73-2.15-9.6s-5.34-7.58-3.92-12.08a8.93,8.93,0,0,1,11.25-6.09,9.84,9.84,0,0,1,5.06,3.67L291.5,526a7.31,7.31,0,0,0-4-3.08,5.35,5.35,0,0,0-6.83,3.74c-.9,2.82-.46,4.71,2.27,8.44,2.57,3.45,5.65,7.61,3.93,13-2.18,6.88-7.7,8.49-12.49,7a10.72,10.72,0,0,1-5.59-4Z"/><path class="cls-2" d="M323.33,564.17a11.22,11.22,0,0,1-6.08.65c-7.07-1-11.11-8.15-9.36-20.18,1.44-9.86,7.17-18.09,15.59-16.86a10.17,10.17,0,0,1,4.78,2l-1.47,2.71a8.72,8.72,0,0,0-4.26-1.85c-6.47-.94-10.18,7.12-11.29,14.72-1.4,9.62,1.31,15.85,7,16.68a9.28,9.28,0,0,0,4.68-.47Z"/><path class="cls-2" d="M352.3,548.2c-.34,13.45-5.87,18.71-11.5,18.56-5.16-.13-10.42-5.66-10.08-19.11s5.87-18.7,11.57-18.56C347.46,529.22,352.64,534.75,352.3,548.2Zm-18.16-.46c-.15,5.93.74,16,7,16.15,6.15.15,7.55-9.85,7.7-15.77s-.73-16-7-16.15C335.68,531.81,334.29,541.81,334.14,547.74Z"/><path class="cls-2" d="M360.65,538.51c-.7-4.43-1.14-5.75-1.62-8.29l2.93-.46.87,4.55.15,0a8.19,8.19,0,0,1,7-6.41c2.92-.46,6.15.49,8.28,4.69l.15,0a11.54,11.54,0,0,1,2.75-5,8.66,8.66,0,0,1,4.73-2.21c3.9-.62,8.66,1.25,10.17,10.78l3.88,24.55-3.23.51L393,537.78c-.81-5.11-2.48-10.31-7.73-9.48-2.85.46-5,3.41-5.24,7.76a20.62,20.62,0,0,0,.36,3.71l3.7,23.42-3.23.51L377,539.38c-.76-4.8-2.49-9.38-7.51-8.58-2.93.46-5.37,3.54-5.27,8.52a23.24,23.24,0,0,0,.37,3.33l3.64,23.05-3.22.51Z"/><path class="cls-2" d="M433,521.59l-12.46,5.26,8.77,20.79,14.28-6,1.13,2.66-17.3,7.3-19.91-47.19,16.38-6.91,1.12,2.66-13.37,5.64,7.77,18.42,12.46-5.26Z"/><path class="cls-2" d="M450,536.63a10,10,0,0,0,5.7-1c3.31-1.86,4.23-5.35,2.25-8.85-1.61-2.85-3.66-4.49-8.48-5s-9.19-1.28-11.5-5.39A8.92,8.92,0,0,1,441.2,504a9.68,9.68,0,0,1,6.13-1.19l.05,3a7.31,7.31,0,0,0-5,.78,5.37,5.37,0,0,0-1.95,7.55c1.46,2.59,3.14,3.56,7.73,4.12,4.27.46,9.41,1.06,12.2,6,3.55,6.29.94,11.42-3.43,13.88a10.65,10.65,0,0,1-6.74,1.36Z"/><path class="cls-2" d="M450.82,487.26l5.45,8,5.71-3.9,1.59,2.32-5.71,3.9,14.05,20.51c2.87,4.2,5,4.39,6.84,3.14a8.24,8.24,0,0,0,1.69-1.43l1.73,1.85a7.42,7.42,0,0,1-2.39,2.29,5.76,5.76,0,0,1-5.22,1c-1.8-.61-3.42-2.17-6-6l-13.35-19.5L451.4,502l-1.58-2.32,3.76-2.58-4.72-6.9Z"/><path class="cls-2" d="M463.54,478.19c1.08,1.38,1.08,2.73-.29,3.81-1.08.84-2.51.62-3.59-.76s-1-2.82.18-3.71C461.15,476.49,462.51,476.88,463.54,478.19Zm25.06,38.59-22.52-28.7,2.58-2,22.51,28.7Z"/><path class="cls-2" d="M464.79,468.35l2.46-2.15,34.65,39.56-2.45,2.15Z"/><path class="cls-2" d="M511.76,470.52c9.67,9.35,9.8,17,5.89,21-3.59,3.71-11.22,3.84-20.89-5.51s-9.8-17-5.84-21.08C494.51,461.24,502.09,461.17,511.76,470.52Zm-12.63,13.05c4.26,4.12,12.27,10.28,16.65,5.74s-2.14-12.22-6.4-16.34-12.26-10.27-16.65-5.74S494.87,479.45,499.13,483.57Z"/></svg>