<svg id="Camada_1" data-name="Camada 1" xmlns="http://www.w3.org/2000/svg" viewBox="0 0 689 570"><defs><style>.cls-1{fill:#202020;}.cls-2{fill:#c78b3b;}.cls-3{fill:#fff;}</style></defs><title>Prancheta 2</title><rect class="cls-1" x="-2" y="3" width="690" height="568"/><path class="cls-2" d="M411.09,298.64A102.68,102.68,0,0,0,271.17,194.07l-17-43.14a149.08,149.08,0,0,1,203.1,151.79Z"/><path class="cls-1" d="M430.26,221.94l-28.6,23.88a103.93,103.93,0,0,0-5.1-9.5Z"/><path class="cls-1" d="M392.66,230.34a106.06,106.06,0,0,0-6.66-8.47l30.66-20Z"/><path class="cls-1" d="M367.33,205.23a104,104,0,0,0-9.17-5.65l22-29.3Z"/><path class="cls-1" d="M317.3,187.27a104.37,104.37,0,0,0-10.77-.34l4.39-36.34Z"/><path class="cls-1" d="M334.94,190.32a101.4,101.4,0,0,0-10.56-2.19L335,153.07Z"/><path class="cls-1" d="M351.78,196.39a102.89,102.89,0,0,0-10-4l16.57-32.68Z"/><path class="cls-1" d="M399.78,184.48l-18.69,32.2a100.91,100.91,0,0,0-8-7.16Z"/><path class="cls-1" d="M411.47,287.34l36.35,4.4-36.69,6.38A107.45,107.45,0,0,0,411.47,287.34Z"/><path class="cls-1" d="M263.24,158.25l18.55,32.3a103.87,103.87,0,0,0-10.24,3.38Z"/><path class="cls-1" d="M286.74,152.34l12.66,35a103.16,103.16,0,0,0-10.67,1.56Z"/><path class="cls-1" d="M404.49,252.37l35.67-8.31-32.3,18.55A103.79,103.79,0,0,0,404.49,252.37Z"/><path class="cls-1" d="M409.52,269.55l36.56-2-35,12.66A102.65,102.65,0,0,0,409.52,269.55Z"/><path class="cls-3" d="M328.66,297.37c6.34-12.82,4.78-30.25,4.78-30.25l-56,35-.21,38c-4.34,6.3-25.26,16.77-25.26,16.77,4.54-15.44-4.27-71.11-4.27-71.11a73.93,73.93,0,1,1,146.17-10.43C391.63,349.91,431,335.68,431,335.68l1.63,19.08s-48.84,30.25-70.82.33c0,0-.39,7.66,7.18,14.39-20.34,44.42-84.46,48.91-84.46,48.91l9.71-98.65C311.16,315.77,328.66,297.37,328.66,297.37Z"/><path class="cls-1" d="M293.78,424.74l9.71-98.66s18.63-7.78,28.87-20.65c0,0-.37,13.75-23.77,26l-4.37,90.86"/><path class="cls-1" d="M283.41,280s19.95,2.89,31.4,17.32C314.81,297.36,302.71,296.1,283.41,280Z"/><path class="cls-1" d="M313.15,274.36l24.56-14.94A70.76,70.76,0,0,1,336,298.5s25,82.11,75.42,65.89a110.83,110.83,0,0,0,21.21-9.63L431,335.68s-39.36,14.23-37.14-60.35a73.76,73.76,0,0,0-5-31.74c-.52-1.32-1.09-2.62-1.67-3.89-.19-.4-.39-.79-.58-1.19-.42-.87-.85-1.74-1.3-2.59l-.72-1.31c-.45-.8-.91-1.6-1.39-2.38-.25-.41-.49-.82-.75-1.22-.54-.85-1.1-1.68-1.67-2.5-.2-.3-.4-.61-.62-.9a70.33,70.33,0,0,0-5.16-6.42l-.63-.68c-.72-.78-1.46-1.55-2.21-2.3l-.78-.74c-.75-.73-1.52-1.44-2.3-2.14l-.71-.61q-1.39-1.22-2.85-2.34a2.43,2.43,0,0,0-.25-.2,75.34,75.34,0,0,0-6.94-4.75l-.23-.13c-1.11-.66-2.23-1.3-3.36-1.9l-.45-.23c-1.12-.58-2.25-1.14-3.4-1.67l-.3-.14a75,75,0,0,0-11.95-4.23,48.59,48.59,0,0,0-10.68,7,18.78,18.78,0,1,1-17.27,33.15,77.42,77.42,0,0,0-.67,11.41c-18,.41-39.08,3.73-63.43,11.87-.16,1.46-.27,2.91-.35,4.38,24.66-8.43,45.9-11.82,63.92-12.24A114.21,114.21,0,0,0,313.15,274.36ZM389,290.05s-.81,56.36,37.64,49.8C426.6,339.85,383.71,360.08,389,290.05ZM342.64,254.9s17.67-2.14,39.94,11.88c0,0,.36-22.76-17.32-49.18,0,0,27.11,22.66,24.57,59.46C389.83,277.06,361.44,256.85,342.64,254.9Z"/><path class="cls-3" d="M414.49,363.31c9.66-5.53,15.56-9.42,15.56-9.42l.94-18.21,1.63,19.08A110.78,110.78,0,0,1,414.49,363.31Z"/><path class="cls-3" d="M345,483.91c-111,0-201.28-90.29-201.28-201.27S234,81.35,345,81.35s201.3,90.3,201.3,201.29S456,483.91,345,483.91Zm0-389.83c-104,0-188.54,84.59-188.54,188.56S241,471.19,345,471.19,533.55,386.6,533.55,282.64,449,94.08,345,94.08Z"/><path class="cls-3" d="M345,463.76c-99.87,0-181.13-81.25-181.13-181.12S245.12,101.51,345,101.51s181.13,81.26,181.13,181.13S444.87,463.76,345,463.76Zm0-355.88c-96.35,0-174.76,78.39-174.76,174.76S248.64,457.39,345,457.39,519.76,379,519.76,282.64,441.36,107.88,345,107.88Z"/><path class="cls-3" d="M688.7,225H531.24a195.86,195.86,0,0,1,0,115.29H688.7l-31.82-58Zm-14,4.77h5.89l-2.86,5.15-2.79-1.55.24-.42h-.48Zm-2.56,8.64,2.79,1.54-2.8,5.05-2.78-1.55Zm-5.6,16.66-2.79-1.55,2.8-5,2.79,1.55Zm-4.64-25.3h6.4v3.18h-6.4ZM661,258.55l2.79,1.55-2.8,5-2.78-1.55Zm-5.62,16.66-2.78-1.55,2.8-5,2.78,1.55Zm-6.24-45.45h6.41v3.18h-6.41Zm-115.24,3.18v-3.18h6.41v3.18ZM540.3,335.5h-6.41v-3.18h6.41Zm6.36-105.74h6.4v3.18h-6.4ZM553.1,335.5h-6.4v-3.18h6.4Zm6.36-105.74h6.41v3.18h-6.41Zm6.46,105.74H559.5v-3.18h6.42Zm6.35-105.74h6.4v3.18h-6.4Zm6.45,105.74h-6.4v-3.18h6.4Zm6.35-105.74h6.4v3.18h-6.4Zm6.46,105.74h-6.41v-3.18h6.41Zm6.35-105.74h6.4v3.18h-6.4Zm6.45,105.74h-6.4v-3.18h6.4Zm6.35-105.74h6.4v3.18h-6.4Zm6.45,105.74h-6.4v-3.18h6.4Zm6.36-105.74h6.4v3.18h-6.4Zm6.45,105.74h-6.4v-3.18h6.4Zm6.35-105.74h6.4v3.18h-6.4Zm6.45,105.74h-6.4v-3.18h6.4Zm7-56.8,2.78,1.55-1.12,2,1.1,2-2.79,1.52-1.94-3.56Zm5.8,56.8h-6.4v-3.18h6.4Zm12.8,0H662v-3.18h6.4Zm9.45-5.14,2.82,5.14h-5.86v-3.18h.49l-.25-.43Zm-5.62-10.24,2.81,5.12-2.78,1.53-2.81-5.12Zm-5.62-10.24,2.81,5.12-2.78,1.53-2.81-5.12ZM661,299.64l2.81,5.12L661,306.29l-2.81-5.12Zm-2.8-5.12-2.79,1.53-2.81-5.12,2.78-1.53Z"/><path class="cls-3" d="M1.3,225l31.82,57.28-31.82,58H158.75a196,196,0,0,1,0-115.29Zm33.2,4.77h6.41v3.18H34.5Zm-12.8,0h6.4v3.18H21.7Zm-9.43,5.15L9.4,229.76h5.9v3.18h-.48l.23.42ZM17.87,245l-2.81-5.05,2.79-1.54,2.8,5Zm5.6,10.07-2.8-5,2.78-1.55,2.8,5Zm5.59,10.08-2.8-5,2.79-1.55,2.79,5Zm2.8,5,2.78-1.55,2.8,5-2.78,1.55ZM15.23,335.5H9.37l2.81-5.14,2.8,1.53-.24.43h.49Zm2.55-8.73L15,325.24l2.82-5.12,2.78,1.53Zm5.64-16.89,2.79,1.53-2.8,5.12L20.61,315ZM28,335.5h-6.4v-3.18H28Zm1-29.21-2.79-1.53L29,299.64l2.79,1.53Zm5.64-16.89,2.79,1.53-2.81,5.13-2.79-1.54Zm6.18,46.1h-6.4v-3.18h6.4Zm-.58-49.69-2.79-1.52,1.11-2-1.12-2,2.77-1.55,2,3.55ZM53.65,335.5h-6.4v-3.18h6.4Zm.06-102.56h-6.4v-3.18h6.4ZM66.46,335.5h-6.4v-3.18h6.4Zm.05-102.56h-6.4v-3.18h6.4ZM79.27,335.5h-6.4v-3.18h6.4Zm0-102.56h-6.4v-3.18h6.4ZM92.07,335.5h-6.4v-3.18h6.4Zm.05-102.56h-6.4v-3.18h6.4ZM104.88,335.5H98.47v-3.18h6.41Zm0-102.56h-6.4v-3.18h6.4ZM117.68,335.5h-6.4v-3.18h6.4Zm0-102.56h-6.41v-3.18h6.41ZM130.49,335.5h-6.41v-3.18h6.41Zm0-102.56h-6.4v-3.18h6.4ZM143.3,335.5h-6.4v-3.18h6.4Zm0-102.56h-6.4v-3.18h6.4Zm12.78,99.38v3.18H149.7v-3.18Zm-6.38-99.38v-3.18h6.4v3.18Z"/><path class="cls-3" d="M101.18,405.9,95.81,417c26.16-13.64,50.49-27.71,50.49-32.9Z"/><path class="cls-3" d="M83.12,415.78l.8-1.54L32.49,439.06v9.08s21.23-9.86,45.34-21.94C79.56,422.75,81.34,419.26,83.12,415.78Z"/><path class="cls-3" d="M75.72,473.8a16.67,16.67,0,0,0-8.79-1.67,19.12,19.12,0,0,0-2.29.32A17.23,17.23,0,0,0,53,481.55l-.34.73c-.1.25-.2.49-.29.76a17,17,0,1,0,23.34-9.24Zm2,19.89a10.54,10.54,0,0,1-19-9.06l.29-.56a10.53,10.53,0,0,1,18.74,9.62Z"/><path class="cls-3" d="M59,484.07l-.29.56a2.56,2.56,0,0,1,.11-.24A2.28,2.28,0,0,1,59,484.07Z"/><polygon class="cls-3" points="71.3 458.9 64.64 472.45 64.09 473.62 58.96 484.07 58.67 484.63 58.08 485.84 52.38 483.04 52.3 482.99 53.01 481.55 62.09 463.12 62.89 461.44 65.54 456.07 71.3 458.9"/><path class="cls-3" d="M32.29,429.54a17,17,0,1,0-9.23,23.36,14.92,14.92,0,0,0,1.5-.63,17.09,17.09,0,0,0,9.08-11.63,15.79,15.79,0,0,0,.33-2.29A16.77,16.77,0,0,0,32.29,429.54ZM7.62,441.68A10.53,10.53,0,1,1,22,446.32l-.57.28A10.51,10.51,0,0,1,7.62,441.68Z"/><path class="cls-3" d="M22,446.32a2,2,0,0,1-.32.18,1,1,0,0,1-.25.1Z"/><polygon class="cls-3" points="50.03 439.75 44.66 442.4 42.98 443.19 24.55 452.27 23.1 452.98 23.06 452.9 20.26 447.2 21.46 446.61 22.04 446.32 32.48 441.2 33.64 440.64 47.2 433.98 50.03 439.75"/><path class="cls-3" d="M57.15,473.6h9.07l55-113.79C109.93,359.81,57.15,473.6,57.15,473.6Zm32.94-56.36a1.67,1.67,0,1,1,1.66-1.66A1.67,1.67,0,0,1,90.09,417.24Z"/><path class="cls-3" d="M588.82,405.9,594.19,417c-26.16-13.64-50.49-27.71-50.49-32.9Z"/><path class="cls-3" d="M606.87,415.78c-.26-.54-.53-1-.79-1.54l51.42,24.82v9.08s-21.22-9.86-45.33-21.94C610.44,422.75,608.67,419.26,606.87,415.78Z"/><path class="cls-3" d="M606.51,496.53A17,17,0,0,0,637.61,483c-.08-.27-.18-.51-.28-.76l-.35-.73a17.17,17.17,0,0,0-11.63-9.1,19.12,19.12,0,0,0-2.29-.32,16.71,16.71,0,0,0-8.79,1.67A17,17,0,0,0,606.51,496.53Zm10.59-16.94A10.56,10.56,0,0,1,631,484.07l.29.56a10.53,10.53,0,1,1-14.23-5Z"/><path class="cls-3" d="M631,484.07l.29.56a2.56,2.56,0,0,0-.11-.24A2.28,2.28,0,0,0,631,484.07Z"/><polygon class="cls-3" points="618.7 458.9 625.35 472.45 625.91 473.62 631.04 484.07 631.33 484.63 631.91 485.84 637.61 483.04 637.7 482.99 636.98 481.55 627.91 463.12 627.12 461.44 624.46 456.07 618.7 458.9"/><path class="cls-3" d="M656,438.35a15.78,15.78,0,0,0,.32,2.29,18.28,18.28,0,0,0,1.16,3.46,16.91,16.91,0,0,0,7.94,8.17,13.69,13.69,0,0,0,1.48.63,17,17,0,1,0-9.22-23.36A16.77,16.77,0,0,0,656,438.35Zm12.51,8.25-.59-.28a10.74,10.74,0,1,1,.59.28Z"/><path class="cls-3" d="M668,446.32a2.21,2.21,0,0,0,.34.18.77.77,0,0,0,.25.1Z"/><polygon class="cls-3" points="639.97 439.75 645.34 442.4 647.02 443.19 665.45 452.27 666.89 452.98 666.93 452.9 669.74 447.2 668.54 446.61 667.95 446.32 657.51 441.2 656.35 440.64 642.81 433.98 639.97 439.75"/><path class="cls-3" d="M568.82,359.81l55,113.79h9.06S580.06,359.81,568.82,359.81Zm29.42,55.77a1.67,1.67,0,1,1,1.67,1.66A1.66,1.66,0,0,1,598.24,415.58Z"/><path class="cls-3" d="M91.56,167.28a38.7,38.7,0,0,1,3.69-9c2.53-4.59,5.67-8,9.68-9.25,3.25-1.08,6.94-.52,10.53,1.46a13.38,13.38,0,0,1,7,14l.2.1c4.81-5,11.48-5.91,18.13-2.24a16.61,16.61,0,0,1,8.06,9.14c1.68,4.67.43,10.13-2.8,16a48.93,48.93,0,0,1-4.66,7.28Zm24,5.71,1.47-2.67a10,10,0,0,0-4.12-13.71c-4.68-2.59-9.49-2.42-12.9,3.78a12.1,12.1,0,0,0-1.35,3.29Zm24.62,13.57a16.37,16.37,0,0,0,1.87-2.79c3.31-6,2-11.85-4.62-15.48-7-3.84-13-.82-16,4.6l-1.4,2.54Z"/><path class="cls-3" d="M148.84,149.46l11.41,13.68-3.92,5.07-37.75-45.95,4.49-5.79,53.72,25.28-4,5.16-16.09-7.62ZM152,136.77l-13.51-6.62c-3.77-1.84-8-4.15-11.87-6.25l-.18.23c3.07,3.21,6.46,6.92,9.07,10l9.75,11.38Z"/><path class="cls-3" d="M141.12,96.76a35.81,35.81,0,0,1,6.13-7.38c4.13-3.94,8.07-6,12.29-6s7.62,2,10.76,5.35c5.12,5.38,5.92,11.28,3.56,17.24l.12.13c4-2,8.45-.59,14.61,4,6.43,4.82,10.68,7.57,12.52,8.32l-4.9,4.68c-1.78-.7-6.38-3.88-12.12-8.26-6.42-4.88-10.27-5.29-14.35-1.41l-1.89,1.8,17.41,18.29-4.75,4.53Zm23.19,14.82,2-1.93C170.89,105.31,170.76,99,166,94c-4.61-4.84-9.48-6-14.68-1.13A13.85,13.85,0,0,0,149,95.53Z"/><path class="cls-3" d="M171.9,69.08a39.09,39.09,0,0,1,7.26-6.5c4.28-3,8.58-4.69,12.74-4.09,3.4.45,6.48,2.57,8.84,5.92A13.37,13.37,0,0,1,200.9,80l.13.18c6.52-2.4,12.92-.3,17.3,5.9a16.66,16.66,0,0,1,3.25,11.75c-.53,4.94-4,9.3-9.5,13.16a51.77,51.77,0,0,1-7.36,4.51ZM191,84.7l2.5-1.76a10,10,0,0,0,2.28-14.14c-3.09-4.37-7.48-6.32-13.26-2.23a11.82,11.82,0,0,0-2.65,2.37Zm16.23,23a16.55,16.55,0,0,0,2.9-1.7c5.61-3.95,6.94-9.8,2.61-15.93-4.6-6.51-11.33-6.42-16.45-2.87l-2.37,1.67Z"/><path class="cls-3" d="M239,62.7l-12.88,6.66,10,19.36,14.69-7.59,2.64,5.11L232.88,96.85l-26.59-51.5,19.6-10.12,2.64,5.11-13.74,7.1,8.75,16.94,12.89-6.65Z"/><path class="cls-3" d="M259.13,65.42l2.08,17.69-6.06,2.1L248.67,26.1l6.93-2.4,31.15,50.54-6.16,2.14L271.28,61.2Zm9.55-8.93L261,43.56c-2.15-3.6-4.45-7.86-6.53-11.73l-.27.1c.81,4.37,1.62,9.32,2.14,13.31l1.94,14.86Z"/><path class="cls-3" d="M281.47,17.07a36,36,0,0,1,9.17-2.83c5.61-1,10.06-.63,13.56,1.72s5.25,5.89,6.08,10.37c1.34,7.3-1.22,12.68-6.45,16.38l0,.17c4.43.51,7.39,4.13,10,11.38,2.74,7.55,4.79,12.18,5.93,13.82l-6.67,1.22c-1.11-1.55-3.22-6.73-5.62-13.54-2.71-7.6-5.71-10-11.25-9l-2.57.48L298.28,72l-6.46,1.19Zm11.3,25.1,2.76-.51c6.18-1.14,9.52-6.49,8.27-13.3-1.21-6.57-4.65-10.21-11.67-9a13.4,13.4,0,0,0-3.37,1Z"/><path class="cls-3" d="M327.36,9.82l4.24,57.81-6.58.48L320.78,10.3Z"/><path class="cls-3" d="M348.07,49.8,343.53,67l-6.4-.25L352.7,9.38l7.32.29,10.53,58.44L364,67.85l-3.11-17.54ZM360.22,45l-2.43-14.85c-.69-4.14-1.27-8.94-1.79-13.3h-.3c-.83,4.37-1.89,9.27-2.87,13.18l-3.62,14.54Z"/><path class="cls-3" d="M415.32,49.42,401.22,46,396.1,67.2l16.08,3.88-1.35,5.59-22.49-5.43L402,14.89l21.45,5.18-1.35,5.59L407,22l-4.48,18.54L416.63,44Z"/><path class="cls-3" d="M417.48,70.83A17.25,17.25,0,0,0,424.41,76c5.67,2.17,10.47-.25,12.56-5.74,1.92-5,.16-9.16-2.85-14C431,51.67,427,44.36,429.65,37.36c3.13-8.18,11.16-12,19.76-8.73a15.37,15.37,0,0,1,6.81,4.87l-3.51,4.73A12.2,12.2,0,0,0,447,33.92a8,8,0,0,0-10.77,4.76c-2.05,5.36-.07,8.58,3.7,14.17C444.65,60,445.63,66,443.34,72c-3.58,9.36-12.38,12.7-21,9.41-3.71-1.41-7.13-4.11-8.23-5.85Z"/><path class="cls-3" d="M470.48,39.22a37.83,37.83,0,0,1,8.95,3.64c4.67,2.56,8,5.85,9.19,9.9,1.12,3.77.4,8.17-2,12.6C484,70,481.17,72.51,477.82,74c-4.87,2.27-10.61,1.57-15.11-.89a22.09,22.09,0,0,1-2.51-1.53L448.76,92.44,443,89.28Zm-7.63,27.55a13.46,13.46,0,0,0,2.21,1.44c5.67,3.12,11.55,1.49,15.49-5.69,2.87-5.23,3.29-11.05-3.17-14.59A14,14,0,0,0,474,46.54Z"/><path class="cls-3" d="M483,92.72l-13.38,11.76-5.16-3.79,44.94-38.92,5.91,4.33L491.4,120.46l-5.26-3.86,7.19-16.28Zm12.77,2.78L502,81.83c1.74-3.82,3.94-8.13,5.94-12l-.24-.17C504.57,72.77,501,76.25,498,79L486.84,89Z"/><path class="cls-3" d="M535.44,83.63A36.14,36.14,0,0,1,543,89.57c4,4,6.24,7.91,6.3,12.13,0,4.07-1.86,7.67-5.08,10.9-5.24,5.25-11.13,6.2-17.15,4l-.12.12c2.11,3.93.81,8.43-3.66,14.71-4.65,6.55-7.29,10.87-8,12.73l-4.8-4.78c.65-1.8,3.72-6.48,7.95-12.33,4.71-6.54,5-10.4,1-14.38l-1.86-1.84-17.83,17.88-4.65-4.64ZM521.22,107.2l2,2c4.45,4.43,10.75,4.14,15.63-.76,4.72-4.73,5.77-9.63.75-14.7a13.25,13.25,0,0,0-2.71-2.22Z"/><path class="cls-3" d="M562.91,121l-6.47-8.41,4.72-3.62,17,22.06-4.71,3.62-6.48-8.42L525.7,158l-4-5.23Z"/><path class="cls-3" d="M551.11,164.22l-16.94,5.49-3.24-5.52,56.7-17.91,3.71,6.32L547.86,193l-3.3-5.63,13.06-12.1Zm10.63,7.62,11.17-10.07c3.12-2.81,6.84-5.9,10.23-8.69l-.15-.25c-4.13,1.65-8.83,3.41-12.64,4.7l-14.19,4.81Z"/><path class="cls-3" d="M180.58,501.14a15.11,15.11,0,0,1-6-4.15c-5.58-5.82-6.33-15.83,7.49-29.09,15-14.36,25.83-11.49,30.67-6.45a12.11,12.11,0,0,1,3.28,5.18l-2.82,1.23a11,11,0,0,0-3-4.74c-3.68-3.84-12.79-5.21-25.35,6.83-12.89,12.36-12.26,20.71-7.79,25.37a11.94,11.94,0,0,0,4.87,3.22Z"/><path class="cls-3" d="M212.6,505.67c-8.6,10.35-16.2,11.05-20.52,7.45-4-3.3-4.68-10.9,3.92-21.24s16.2-11.05,20.58-7.4C220.55,487.78,221.2,495.33,212.6,505.67Zm-14-11.61c-3.79,4.56-9.32,13-4.47,17s12-3.05,15.81-7.61,9.32-13,4.47-17S202.42,489.51,198.63,494.06Z"/><path class="cls-3" d="M225.1,502.39c1.53-2.27,3.26-5.23,4.47-7.16l2.58,1.74L229,502l.12.09c2.55-2.14,7.06-3.12,10.21-1l.57.38-2,3-.51-.34c-3.9-2.64-8.76-.33-11.53,3.21-.65.84-1.21,1.66-1.8,2.54l-11.93,17.63-2.7-1.83Z"/><path class="cls-3" d="M253.91,499.07l-4.69,8.43,6,3.36-1.37,2.46-6-3.36-12.09,21.71c-2.47,4.45-1.68,6.46.25,7.53a8.53,8.53,0,0,0,2,.88l-.89,2.37a7.4,7.4,0,0,1-3.12-1.12,5.79,5.79,0,0,1-3.21-4.23c-.26-1.88.42-4,2.67-8.08L245,508.37l-4-2.22,1.37-2.46,4,2.22,4.07-7.3Z"/><path class="cls-3" d="M253.76,528.89c-5.9,13.43-2.25,17.77,1.51,19.42a9.74,9.74,0,0,0,5.59.88l-.31,2.6a12.6,12.6,0,0,1-7-1.08c-7.3-3.21-7.9-11.69-3.46-21.78,4.64-10.57,11.46-15.71,17.59-13,6.61,2.9,4.84,11.84,2.24,17.75-.27.63-.55,1.26-.85,2Zm13.18,2.88c3.74-8.15,1.53-12.36-.91-13.43-3.9-1.71-8.43,2.94-11.13,8.14Z"/><path class="cls-3" d="M270.78,552.38a9.86,9.86,0,0,0,4.65,3.46c3.62,1.15,6.79-.56,8-4.4,1-3.12.77-5.73-2.15-9.61s-5.34-7.58-3.92-12.07a8.92,8.92,0,0,1,11.25-6.09,9.73,9.73,0,0,1,5.06,3.67l-2.18,2.1a7.33,7.33,0,0,0-4-3.09,5.36,5.36,0,0,0-6.83,3.74c-.9,2.83-.46,4.72,2.27,8.45,2.57,3.44,5.65,7.6,3.93,13-2.18,6.88-7.7,8.48-12.49,7a10.66,10.66,0,0,1-5.59-4Z"/><path class="cls-3" d="M323.33,567.56a11.24,11.24,0,0,1-6.09.65c-7.07-1-11.1-8.14-9.35-20.18,1.44-9.85,7.16-18.08,15.59-16.85a10.17,10.17,0,0,1,4.78,2l-1.47,2.7a8.91,8.91,0,0,0-4.27-1.85c-6.46-.94-10.17,7.12-11.28,14.72-1.4,9.63,1.3,15.86,7,16.69a9.5,9.5,0,0,0,4.68-.47Z"/><path class="cls-3" d="M352.3,551.6c-.34,13.44-5.87,18.7-11.5,18.56-5.16-.13-10.42-5.66-10.08-19.11s5.87-18.71,11.57-18.56C347.46,532.62,352.64,538.15,352.3,551.6Zm-18.16-.47c-.15,5.93.73,16,7,16.15,6.15.16,7.55-9.84,7.7-15.77s-.73-16-7-16.15C335.68,535.21,334.29,545.21,334.14,551.13Z"/><path class="cls-3" d="M360.64,541.9c-.7-4.43-1.13-5.74-1.61-8.28l2.92-.47.88,4.56.15,0a8.19,8.19,0,0,1,7-6.42c2.92-.46,6.15.49,8.28,4.69l.15,0a11.48,11.48,0,0,1,2.75-5,8.52,8.52,0,0,1,4.73-2.21c3.9-.62,8.66,1.24,10.17,10.78l3.88,24.54-3.23.51L393,541.17c-.81-5.1-2.48-10.3-7.73-9.47-2.85.45-5,3.41-5.24,7.75a19.85,19.85,0,0,0,.36,3.72l3.7,23.41-3.23.51L377,542.78c-.76-4.81-2.49-9.38-7.52-8.59-2.92.47-5.36,3.54-5.26,8.53a22.94,22.94,0,0,0,.37,3.32l3.64,23.05-3.23.51Z"/><path class="cls-3" d="M433,525l-12.47,5.26,8.78,20.8,14.28-6,1.13,2.66-17.3,7.3-19.92-47.19,16.39-6.92,1.12,2.66-13.37,5.65,7.77,18.41,12.46-5.26Z"/><path class="cls-3" d="M450,540a10,10,0,0,0,5.7-1c3.31-1.87,4.23-5.35,2.25-8.86-1.6-2.85-3.66-4.48-8.48-5s-9.18-1.29-11.49-5.39a8.92,8.92,0,0,1,3.23-12.38,9.75,9.75,0,0,1,6.14-1.18l0,3a7.33,7.33,0,0,0-5,.79,5.36,5.36,0,0,0-1.94,7.55c1.45,2.58,3.13,3.55,7.72,4.11,4.28.47,9.41,1.07,12.21,6,3.54,6.29.94,11.43-3.44,13.89a10.68,10.68,0,0,1-6.73,1.35Z"/><path class="cls-3" d="M450.82,490.65l5.45,8,5.71-3.91,1.59,2.32-5.71,3.91,14,20.51c2.88,4.2,5,4.38,6.85,3.14a8.51,8.51,0,0,0,1.69-1.44l1.73,1.86a7.41,7.41,0,0,1-2.39,2.28,5.76,5.76,0,0,1-5.22,1c-1.8-.61-3.42-2.17-6-6l-13.35-19.5-3.77,2.57L449.81,503l3.77-2.57-4.73-6.9Z"/><path class="cls-3" d="M463.54,481.59c1.08,1.37,1.08,2.72-.29,3.8-1.08.85-2.52.62-3.59-.75a2.52,2.52,0,0,1,.17-3.72C461.15,479.89,462.51,480.27,463.54,481.59Zm25.06,38.58-22.52-28.7,2.57-2,22.52,28.7Z"/><path class="cls-3" d="M464.79,471.75l2.46-2.16,34.65,39.56-2.45,2.15Z"/><path class="cls-3" d="M511.75,473.93c9.66,9.35,9.79,17,5.88,21-3.59,3.72-11.22,3.84-20.89-5.51s-9.8-17-5.83-21.08C494.5,464.65,502.08,464.58,511.75,473.93ZM499.12,487c4.26,4.13,12.26,10.28,16.65,5.75s-2.14-12.22-6.4-16.34-12.26-10.28-16.65-5.75S494.86,482.86,499.12,487Z"/></svg>